<?xml version="1.0" encoding="UTF-8" standalone="no"?>
<!-- Created with Inkscape (http://www.inkscape.org/) -->

<svg
   xmlns:dc="http://purl.org/dc/elements/1.1/"
   xmlns:cc="http://creativecommons.org/ns#"
   xmlns:rdf="http://www.w3.org/1999/02/22-rdf-syntax-ns#"
   xmlns:svg="http://www.w3.org/2000/svg"
   xmlns="http://www.w3.org/2000/svg"
   xmlns:sodipodi="http://sodipodi.sourceforge.net/DTD/sodipodi-0.dtd"
   xmlns:inkscape="http://www.inkscape.org/namespaces/inkscape"
   width="200mm"
   height="200mm"
   viewBox="0 0 200 200"
   version="1.1"
   id="svg8"
   inkscape:version="0.92.3 (2405546, 2018-03-11)"
   sodipodi:docname="plotteria_finish.svg">
  <defs
     id="defs2" />
  <sodipodi:namedview
     id="base"
     pagecolor="#ffffff"
     bordercolor="#666666"
     borderopacity="1.0"
     inkscape:pageopacity="0.0"
     inkscape:pageshadow="2"
     inkscape:zoom="0.51165"
     inkscape:cx="312.93862"
     inkscape:cy="482.45453"
     inkscape:document-units="mm"
     inkscape:current-layer="layer1"
     showgrid="false"
     showguides="true"
     inkscape:guide-bbox="true"
     inkscape:snap-object-midpoints="false"
     inkscape:snap-center="false"
     inkscape:snap-others="true"
     inkscape:window-width="1278"
     inkscape:window-height="1008"
     inkscape:window-x="1273"
     inkscape:window-y="40"
     inkscape:window-maximized="0"
     inkscape:object-nodes="false"
     inkscape:measure-start="629.248,368.134"
     inkscape:measure-end="628.989,387.05"
     inkscape:snap-intersection-paths="false"
     inkscape:object-paths="false"
     inkscape:snap-nodes="true" />
  <metadata
     id="metadata5">
    <rdf:RDF>
      <cc:Work
         rdf:about="">
        <dc:format>image/svg+xml</dc:format>
        <dc:type
           rdf:resource="http://purl.org/dc/dcmitype/StillImage" />
        <dc:title />
      </cc:Work>
    </rdf:RDF>
  </metadata>
  <g
     inkscape:label="Layer 1"
     inkscape:groupmode="layer"
     id="layer1"
     transform="translate(0,-97)">
    <path
       style="opacity:1;fill:#cc0000;fill-opacity:1;stroke:none;stroke-width:0.26499999;stroke-miterlimit:4;stroke-dasharray:none;stroke-dashoffset:0;stroke-opacity:1"
       d="m 103.08046,102.15931 a 18.499999,18.499999 0 0 0 -18.500101,18.50017 18.499999,18.499999 0 0 0 18.500101,18.49964 18.499999,18.499999 0 0 0 18.50017,-18.49964 18.499999,18.499999 0 0 0 -18.50017,-18.50017 z m 0,5.46479 a 1.635,1.635 0 0 1 1.63505,1.63504 1.635,1.635 0 0 1 -1.63505,1.63504 1.635,1.635 0 0 1 -1.63504,-1.63504 1.635,1.635 0 0 1 1.63504,-1.63504 z m -0.006,5.09994 a 7.9349999,7.9350004 67.042481 0 1 7.31222,4.84002 7.9349999,7.9350004 67.042481 0 1 -4.21163,10.40195 7.9349999,7.9350004 67.042481 0 1 -10.401416,-4.21163 7.9349999,7.9350004 67.042481 0 1 4.211609,-10.40143 7.9349999,7.9350004 67.042481 0 1 3.089217,-0.62891 z m -9.867061,12.00031 a 1.6349999,1.6349999 0 0 1 1.635041,1.63504 1.6349999,1.6349999 0 0 1 -1.635041,1.63504 1.6349999,1.6349999 0 0 1 -1.635031,-1.63504 1.6349999,1.6349999 0 0 1 1.635031,-1.63504 z m 19.745531,0 a 1.6349999,1.6349999 0 0 1 1.63504,1.63504 1.6349999,1.6349999 0 0 1 -1.63504,1.63504 1.6349999,1.6349999 0 0 1 -1.63505,-1.63504 1.6349999,1.6349999 0 0 1 1.63505,-1.63504 z"
       id="circle1755"
       inkscape:connector-curvature="0" />
    <g
       id="g1970"
       transform="translate(-10.054167,-11.112501)">
      <path
         inkscape:connector-curvature="0"
         id="ellipse1733"
         d="m 72.921936,117.52464 a 14.799998,14.799999 67.04248 0 0 -5.76244,1.17202 14.799998,14.799999 67.04248 0 0 -7.854818,19.40088 14.799998,14.799999 67.04248 0 0 19.400366,7.85482 14.799998,14.799999 67.04248 0 0 7.854818,-19.40036 14.799998,14.799999 67.04248 0 0 -13.637926,-9.02736 z m 0.01033,1.76475 a 1.6349999,1.6349999 0 0 1 1.635043,1.63504 1.6349999,1.6349999 0 0 1 -1.635043,1.63504 1.6349999,1.6349999 0 0 1 -1.63504,-1.63504 1.6349999,1.6349999 0 0 1 1.63504,-1.63504 z m -0.0057,5.09995 a 7.9349999,7.9350004 67.042481 0 1 7.312215,4.84001 7.9349999,7.9350004 67.042481 0 1 -4.211629,10.40195 7.9349999,7.9350004 67.042481 0 1 -10.401432,-4.21163 7.9349999,7.9350004 67.042481 0 1 4.211629,-10.40143 7.9349999,7.9350004 67.042481 0 1 3.089217,-0.6289 z m -9.867098,12.0003 a 1.6349999,1.6349999 0 0 1 1.635043,1.63504 1.6349999,1.6349999 0 0 1 -1.635043,1.63504 1.6349999,1.6349999 0 0 1 -1.635043,-1.63504 1.6349999,1.6349999 0 0 1 1.635043,-1.63504 z m 19.745565,0 a 1.635,1.635 0 0 1 1.635041,1.63504 1.635,1.635 0 0 1 -1.635041,1.63504 1.635,1.635 0 0 1 -1.635043,-1.63504 1.635,1.635 0 0 1 1.635043,-1.63504 z"
         style="opacity:1;fill:#dadada;fill-opacity:1;stroke:none;stroke-width:0.26499999;stroke-miterlimit:4;stroke-dasharray:none;stroke-dashoffset:0;stroke-opacity:1" />
      <path
         inkscape:connector-curvature="0"
         id="path1783"
         d="m 72.925936,113.91142 c -10.21727,0 -18.50016,8.28289 -18.50016,18.50016 0,3.37129 0.90395,6.44902 2.47944,9.17102 3.1993,5.52747 12.27886,21.20581 14.65647,25.37467 0,0 5.1e-4,0 5.1e-4,0 v -7.47551 h 2.73989 v 7.47242 c 2.62495,-4.56198 11.7132,-20.29991 14.64872,-25.3721 1.57526,-2.72186 2.47736,-5.88215 2.47736,-9.25318 0,-10.21727 -8.28497,-18.41748 -18.50223,-18.41748 z m -0.004,3.61321 a 14.799999,14.8 67.04248 0 1 13.63793,9.02736 14.799999,14.8 67.04248 0 1 -7.85482,19.40037 14.799999,14.8 67.04248 0 1 -19.40037,-7.85482 14.799999,14.8 67.04248 0 1 7.85482,-19.40037 14.799999,14.8 67.04248 0 1 5.76244,-1.17254 z"
         style="opacity:1;fill:#5c3566;fill-opacity:1;stroke:none;stroke-width:0.26499999;stroke-miterlimit:4;stroke-dasharray:none;stroke-dashoffset:0;stroke-opacity:1" />
    </g>
    <g
       id="g1966"
       transform="translate(-6.0854171,-12.170832)">
      <path
         style="opacity:1;fill:#dadada;fill-opacity:1;stroke:none;stroke-width:0.26499999;stroke-miterlimit:4;stroke-dasharray:none;stroke-dashoffset:0;stroke-opacity:1"
         d="m 29.794853,118.58297 a 14.799998,14.799999 67.04248 0 0 -5.76244,1.17202 14.799998,14.799999 67.04248 0 0 -7.854818,19.40088 14.799998,14.799999 67.04248 0 0 19.400366,7.85482 14.799998,14.799999 67.04248 0 0 7.854818,-19.40036 14.799998,14.799999 67.04248 0 0 -13.637926,-9.02736 z m 0.01033,1.76475 a 1.6349999,1.6349999 0 0 1 1.635043,1.63504 1.6349999,1.6349999 0 0 1 -1.635043,1.63504 1.6349999,1.6349999 0 0 1 -1.63504,-1.63504 1.6349999,1.6349999 0 0 1 1.63504,-1.63504 z m -0.0057,5.09995 a 7.9349999,7.9350004 67.042481 0 1 7.312215,4.84001 7.9349999,7.9350004 67.042481 0 1 -4.211629,10.40195 7.9349999,7.9350004 67.042481 0 1 -10.401432,-4.21163 7.9349999,7.9350004 67.042481 0 1 4.211629,-10.40143 7.9349999,7.9350004 67.042481 0 1 3.089217,-0.6289 z m -9.867098,12.0003 a 1.6349999,1.6349999 0 0 1 1.635043,1.63504 1.6349999,1.6349999 0 0 1 -1.635043,1.63504 1.6349999,1.6349999 0 0 1 -1.635043,-1.63504 1.6349999,1.6349999 0 0 1 1.635043,-1.63504 z m 19.745565,0 a 1.635,1.635 0 0 1 1.635041,1.63504 1.635,1.635 0 0 1 -1.635041,1.63504 1.635,1.635 0 0 1 -1.635043,-1.63504 1.635,1.635 0 0 1 1.635043,-1.63504 z"
         id="path1933"
         inkscape:connector-curvature="0" />
      <path
         style="opacity:1;fill:#5c3566;fill-opacity:1;stroke:none;stroke-width:0.26499999;stroke-miterlimit:4;stroke-dasharray:none;stroke-dashoffset:0;stroke-opacity:1"
         d="m 29.798853,114.96975 c -10.21727,0 -18.50016,8.28289 -18.50016,18.50016 0,3.37129 0.90395,6.44902 2.47944,9.17102 3.1993,5.52747 12.27886,21.20581 14.65647,25.37467 0,0 5.1e-4,0 5.1e-4,0 v -7.47551 h 2.73989 v 7.47242 c 2.62495,-4.56198 11.7132,-20.29991 14.64872,-25.3721 1.57526,-2.72186 2.47736,-5.88215 2.47736,-9.25318 0,-10.21727 -8.28497,-18.41748 -18.50223,-18.41748 z m -0.004,3.61321 a 14.799999,14.8 67.04248 0 1 13.63793,9.02736 14.799999,14.8 67.04248 0 1 -7.85482,19.40037 14.799999,14.8 67.04248 0 1 -19.40037,-7.85482 14.799999,14.8 67.04248 0 1 7.85482,-19.40037 14.799999,14.8 67.04248 0 1 5.76244,-1.17254 z"
         id="path1935"
         inkscape:connector-curvature="0" />
    </g>
    <g
       id="g1962"
       transform="rotate(-180,39.1926,179.85733)">
      <path
         inkscape:connector-curvature="0"
         id="path1937"
         d="m 34.557353,178.64339 a 14.799998,14.799999 67.04248 0 0 -5.76244,1.17202 14.799998,14.799999 67.04248 0 0 -7.854818,19.40088 14.799998,14.799999 67.04248 0 0 19.400366,7.85482 14.799998,14.799999 67.04248 0 0 7.854818,-19.40036 14.799998,14.799999 67.04248 0 0 -13.637926,-9.02736 z m 0.01033,1.76475 a 1.6349999,1.6349999 0 0 1 1.635043,1.63504 1.6349999,1.6349999 0 0 1 -1.635043,1.63504 1.6349999,1.6349999 0 0 1 -1.63504,-1.63504 1.6349999,1.6349999 0 0 1 1.63504,-1.63504 z m -0.0057,5.09995 a 7.9349999,7.9350004 67.042481 0 1 7.312215,4.84001 7.9349999,7.9350004 67.042481 0 1 -4.211629,10.40195 7.9349999,7.9350004 67.042481 0 1 -10.401432,-4.21163 7.9349999,7.9350004 67.042481 0 1 4.211629,-10.40143 7.9349999,7.9350004 67.042481 0 1 3.089217,-0.6289 z m -9.867098,12.0003 a 1.6349999,1.6349999 0 0 1 1.635043,1.63504 1.6349999,1.6349999 0 0 1 -1.635043,1.63504 1.6349999,1.6349999 0 0 1 -1.635043,-1.63504 1.6349999,1.6349999 0 0 1 1.635043,-1.63504 z m 19.745565,0 a 1.635,1.635 0 0 1 1.635041,1.63504 1.635,1.635 0 0 1 -1.635041,1.63504 1.635,1.635 0 0 1 -1.635043,-1.63504 1.635,1.635 0 0 1 1.635043,-1.63504 z"
         style="opacity:1;fill:#dadada;fill-opacity:1;stroke:none;stroke-width:0.26499999;stroke-miterlimit:4;stroke-dasharray:none;stroke-dashoffset:0;stroke-opacity:1" />
      <path
         inkscape:connector-curvature="0"
         id="path1939"
         d="m 34.561353,175.03017 c -10.21727,0 -18.50016,8.28289 -18.50016,18.50016 0,3.37129 0.90395,6.44902 2.47944,9.17102 3.1993,5.52747 12.27886,21.20581 14.65647,25.37467 0,0 5.1e-4,0 5.1e-4,0 v -7.47551 h 2.73989 v 7.47242 c 2.62495,-4.56198 11.7132,-20.29991 14.64872,-25.3721 1.57526,-2.72186 2.47736,-5.88215 2.47736,-9.25318 0,-10.21727 -8.28497,-18.41748 -18.50223,-18.41748 z m -0.004,3.61321 a 14.799999,14.8 67.04248 0 1 13.63793,9.02736 14.799999,14.8 67.04248 0 1 -7.85482,19.40037 14.799999,14.8 67.04248 0 1 -19.40037,-7.85482 14.799999,14.8 67.04248 0 1 7.85482,-19.40037 14.799999,14.8 67.04248 0 1 5.76244,-1.17254 z"
         style="opacity:1;fill:#5c3566;fill-opacity:1;stroke:none;stroke-width:0.26499999;stroke-miterlimit:4;stroke-dasharray:none;stroke-dashoffset:0;stroke-opacity:1" />
      <path
         style="opacity:1;fill:#dadada;fill-opacity:1;stroke:none;stroke-width:0.26499999;stroke-miterlimit:4;stroke-dasharray:none;stroke-dashoffset:0;stroke-opacity:1"
         d="m 34.557353,178.64339 a 14.799998,14.799999 67.04248 0 0 -5.76244,1.17202 14.799998,14.799999 67.04248 0 0 -7.854818,19.40088 14.799998,14.799999 67.04248 0 0 19.400366,7.85482 14.799998,14.799999 67.04248 0 0 7.854818,-19.40036 14.799998,14.799999 67.04248 0 0 -13.637926,-9.02736 z m 0.01033,1.76475 a 1.6349999,1.6349999 0 0 1 1.635043,1.63504 1.6349999,1.6349999 0 0 1 -1.635043,1.63504 1.6349999,1.6349999 0 0 1 -1.63504,-1.63504 1.6349999,1.6349999 0 0 1 1.63504,-1.63504 z m -0.0057,5.09995 a 7.9349999,7.9350004 67.042481 0 1 7.312215,4.84001 7.9349999,7.9350004 67.042481 0 1 -4.211629,10.40195 7.9349999,7.9350004 67.042481 0 1 -10.401432,-4.21163 7.9349999,7.9350004 67.042481 0 1 4.211629,-10.40143 7.9349999,7.9350004 67.042481 0 1 3.089217,-0.6289 z m -9.867098,12.0003 a 1.6349999,1.6349999 0 0 1 1.635043,1.63504 1.6349999,1.6349999 0 0 1 -1.635043,1.63504 1.6349999,1.6349999 0 0 1 -1.635043,-1.63504 1.6349999,1.6349999 0 0 1 1.635043,-1.63504 z m 19.745565,0 a 1.635,1.635 0 0 1 1.635041,1.63504 1.635,1.635 0 0 1 -1.635041,1.63504 1.635,1.635 0 0 1 -1.635043,-1.63504 1.635,1.635 0 0 1 1.635043,-1.63504 z"
         id="path1941"
         inkscape:connector-curvature="0" />
    </g>
    <g
       id="g1987"
       transform="translate(-10.054167,-11.112501)">
      <path
         style="opacity:1;fill:#dadada;fill-opacity:1;stroke:none;stroke-width:0.26499999;stroke-miterlimit:4;stroke-dasharray:none;stroke-dashoffset:0;stroke-opacity:1"
         d="m 92.775752,192.18365 a 14.799998,14.799999 67.04248 0 0 5.76244,-1.17202 14.799998,14.799999 67.04248 0 0 7.854818,-19.40088 14.799998,14.799999 67.04248 0 0 -19.400366,-7.85482 14.799998,14.799999 67.04248 0 0 -7.854818,19.40036 14.799998,14.799999 67.04248 0 0 13.637926,9.02736 z m -0.01033,-1.76475 a 1.6349999,1.6349999 0 0 1 -1.635043,-1.63504 1.6349999,1.6349999 0 0 1 1.635043,-1.63504 1.6349999,1.6349999 0 0 1 1.63504,1.63504 1.6349999,1.6349999 0 0 1 -1.63504,1.63504 z m 0.0057,-5.09995 a 7.9349999,7.9350004 67.042481 0 1 -7.312215,-4.84001 7.9349999,7.9350004 67.042481 0 1 4.211629,-10.40195 7.9349999,7.9350004 67.042481 0 1 10.401434,4.21163 7.9349999,7.9350004 67.042481 0 1 -4.211631,10.40143 7.9349999,7.9350004 67.042481 0 1 -3.089217,0.6289 z m 9.867098,-12.0003 a 1.6349999,1.6349999 0 0 1 -1.63504,-1.63504 1.6349999,1.6349999 0 0 1 1.63504,-1.63504 1.6349999,1.6349999 0 0 1 1.63504,1.63504 1.6349999,1.6349999 0 0 1 -1.63504,1.63504 z m -19.745565,0 a 1.635,1.635 0 0 1 -1.635041,-1.63504 1.635,1.635 0 0 1 1.635041,-1.63504 1.635,1.635 0 0 1 1.635043,1.63504 1.635,1.635 0 0 1 -1.635043,1.63504 z"
         id="path1945"
         inkscape:connector-curvature="0" />
      <path
         style="opacity:1;fill:#5c3566;fill-opacity:1;stroke:none;stroke-width:0.26499999;stroke-miterlimit:4;stroke-dasharray:none;stroke-dashoffset:0;stroke-opacity:1"
         d="m 92.771752,195.79687 c 10.217268,0 18.500158,-8.28289 18.500158,-18.50016 0,-3.37129 -0.90395,-6.44902 -2.47944,-9.17102 -3.1993,-5.52747 -12.278858,-21.20581 -14.656468,-25.37467 0,0 -5.1e-4,0 -5.1e-4,0 v 7.47551 h -2.73989 v -7.47242 c -2.62495,4.56198 -11.7132,20.29991 -14.64872,25.3721 -1.57526,2.72186 -2.47736,5.88215 -2.47736,9.25318 0,10.21727 8.28497,18.41748 18.50223,18.41748 z m 0.004,-3.61321 a 14.799999,14.8 67.04248 0 1 -13.63793,-9.02736 14.799999,14.8 67.04248 0 1 7.85482,-19.40037 14.799999,14.8 67.04248 0 1 19.400368,7.85482 14.799999,14.8 67.04248 0 1 -7.854818,19.40037 14.799999,14.8 67.04248 0 1 -5.76244,1.17254 z"
         id="path1947"
         inkscape:connector-curvature="0" />
      <path
         inkscape:connector-curvature="0"
         id="path1949"
         d="m 92.775752,192.18365 a 14.799998,14.799999 67.04248 0 0 5.76244,-1.17202 14.799998,14.799999 67.04248 0 0 7.854818,-19.40088 14.799998,14.799999 67.04248 0 0 -19.400366,-7.85482 14.799998,14.799999 67.04248 0 0 -7.854818,19.40036 14.799998,14.799999 67.04248 0 0 13.637926,9.02736 z m -0.01033,-1.76475 a 1.6349999,1.6349999 0 0 1 -1.635043,-1.63504 1.6349999,1.6349999 0 0 1 1.635043,-1.63504 1.6349999,1.6349999 0 0 1 1.63504,1.63504 1.6349999,1.6349999 0 0 1 -1.63504,1.63504 z m 0.0057,-5.09995 a 7.9349999,7.9350004 67.042481 0 1 -7.312215,-4.84001 7.9349999,7.9350004 67.042481 0 1 4.211629,-10.40195 7.9349999,7.9350004 67.042481 0 1 10.401434,4.21163 7.9349999,7.9350004 67.042481 0 1 -4.211631,10.40143 7.9349999,7.9350004 67.042481 0 1 -3.089217,0.6289 z m 9.867098,-12.0003 a 1.6349999,1.6349999 0 0 1 -1.63504,-1.63504 1.6349999,1.6349999 0 0 1 1.63504,-1.63504 1.6349999,1.6349999 0 0 1 1.63504,1.63504 1.6349999,1.6349999 0 0 1 -1.63504,1.63504 z m -19.745565,0 a 1.635,1.635 0 0 1 -1.635041,-1.63504 1.635,1.635 0 0 1 1.635041,-1.63504 1.635,1.635 0 0 1 1.635043,1.63504 1.635,1.635 0 0 1 -1.635043,1.63504 z"
         style="opacity:1;fill:#dadada;fill-opacity:1;stroke:none;stroke-width:0.26499999;stroke-miterlimit:4;stroke-dasharray:none;stroke-dashoffset:0;stroke-opacity:1" />
      <path
         inkscape:connector-curvature="0"
         id="path1951"
         d="m 92.771752,195.79687 c 10.217268,0 18.500158,-8.28289 18.500158,-18.50016 0,-3.37129 -0.90395,-6.44902 -2.47944,-9.17102 -3.1993,-5.52747 -12.278858,-21.20581 -14.656468,-25.37467 0,0 -5.1e-4,0 -5.1e-4,0 v 7.47551 h -2.73989 v -7.47242 c -2.62495,4.56198 -11.7132,20.29991 -14.64872,25.3721 -1.57526,2.72186 -2.47736,5.88215 -2.47736,9.25318 0,10.21727 8.28497,18.41748 18.50223,18.41748 z m 0.004,-3.61321 a 14.799999,14.8 67.04248 0 1 -13.63793,-9.02736 14.799999,14.8 67.04248 0 1 7.85482,-19.40037 14.799999,14.8 67.04248 0 1 19.400368,7.85482 14.799999,14.8 67.04248 0 1 -7.854818,19.40037 14.799999,14.8 67.04248 0 1 -5.76244,1.17254 z"
         style="opacity:1;fill:#5c3566;fill-opacity:1;stroke:none;stroke-width:0.26499999;stroke-miterlimit:4;stroke-dasharray:none;stroke-dashoffset:0;stroke-opacity:1" />
    </g>
    <path
       inkscape:connector-curvature="0"
       id="path1976"
       d="m 138.69685,136.20241 a 14.799998,14.799999 67.04248 0 0 5.76244,-1.17202 14.799998,14.799999 67.04248 0 0 7.85482,-19.40088 14.799998,14.799999 67.04248 0 0 -19.40036,-7.85482 14.799998,14.799999 67.04248 0 0 -7.85482,19.40036 14.799998,14.799999 67.04248 0 0 13.63792,9.02736 z m -0.0103,-1.76475 a 1.6349999,1.6349999 0 0 1 -1.63504,-1.63504 1.6349999,1.6349999 0 0 1 1.63504,-1.63504 1.6349999,1.6349999 0 0 1 1.63504,1.63504 1.6349999,1.6349999 0 0 1 -1.63504,1.63504 z m 0.006,-5.09995 a 7.9349999,7.9350004 67.042481 0 1 -7.31221,-4.84001 7.9349999,7.9350004 67.042481 0 1 4.21163,-10.40195 7.9349999,7.9350004 67.042481 0 1 10.40143,4.21163 7.9349999,7.9350004 67.042481 0 1 -4.21163,10.40143 7.9349999,7.9350004 67.042481 0 1 -3.08922,0.6289 z m 9.8671,-12.0003 a 1.6349999,1.6349999 0 0 1 -1.63504,-1.63504 1.6349999,1.6349999 0 0 1 1.63504,-1.63504 1.6349999,1.6349999 0 0 1 1.63504,1.63504 1.6349999,1.6349999 0 0 1 -1.63504,1.63504 z m -19.74556,0 a 1.635,1.635 0 0 1 -1.63504,-1.63504 1.635,1.635 0 0 1 1.63504,-1.63504 1.635,1.635 0 0 1 1.63504,1.63504 1.635,1.635 0 0 1 -1.63504,1.63504 z"
       style="opacity:1;fill:#dadada;fill-opacity:1;stroke:none;stroke-width:0.26499999;stroke-miterlimit:4;stroke-dasharray:none;stroke-dashoffset:0;stroke-opacity:1" />
    <path
       inkscape:connector-curvature="0"
       id="path1972"
       d="m 122.65183,136.27176 a 18.499999,18.499999 0 0 0 -18.50016,18.50017 18.499999,18.499999 0 0 0 18.50016,18.49964 18.499999,18.499999 0 0 0 18.50017,-18.49964 18.499999,18.499999 0 0 0 -18.50017,-18.50017 z m 0,5.46479 a 1.635,1.635 0 0 1 1.63505,1.63504 1.635,1.635 0 0 1 -1.63505,1.63504 1.635,1.635 0 0 1 -1.63504,-1.63504 1.635,1.635 0 0 1 1.63504,-1.63504 z m -0.006,5.09994 a 7.9349999,7.9350004 67.042481 0 1 7.31222,4.84002 7.9349999,7.9350004 67.042481 0 1 -4.21163,10.40195 7.9349999,7.9350004 67.042481 0 1 -10.40144,-4.21163 7.9349999,7.9350004 67.042481 0 1 4.21163,-10.40143 7.9349999,7.9350004 67.042481 0 1 3.08922,-0.62891 z m -9.8671,12.00031 a 1.6349999,1.6349999 0 0 1 1.63505,1.63504 1.6349999,1.6349999 0 0 1 -1.63505,1.63504 1.6349999,1.6349999 0 0 1 -1.63504,-1.63504 1.6349999,1.6349999 0 0 1 1.63504,-1.63504 z m 19.74557,0 a 1.6349999,1.6349999 0 0 1 1.63504,1.63504 1.6349999,1.6349999 0 0 1 -1.63504,1.63504 1.6349999,1.6349999 0 0 1 -1.63505,-1.63504 1.6349999,1.6349999 0 0 1 1.63505,-1.63504 z"
       style="opacity:1;fill:#cc0000;fill-opacity:1;stroke:none;stroke-width:0.26499999;stroke-miterlimit:4;stroke-dasharray:none;stroke-dashoffset:0;stroke-opacity:1" />
    <path
       style="opacity:1;fill:#dadada;fill-opacity:1;stroke:none;stroke-width:0.26499999;stroke-miterlimit:4;stroke-dasharray:none;stroke-dashoffset:0;stroke-opacity:1"
       d="m 174.61788,187.09053 a 14.799998,14.799999 67.04248 0 0 5.76244,-1.17202 14.799998,14.799999 67.04248 0 0 7.85482,-19.40088 14.799998,14.799999 67.04248 0 0 -19.40036,-7.85482 14.799998,14.799999 67.04248 0 0 -7.85482,19.40036 14.799998,14.799999 67.04248 0 0 13.63792,9.02736 z m -0.0103,-1.76475 a 1.6349999,1.6349999 0 0 1 -1.63504,-1.63504 1.6349999,1.6349999 0 0 1 1.63504,-1.63504 1.6349999,1.6349999 0 0 1 1.63504,1.63504 1.6349999,1.6349999 0 0 1 -1.63504,1.63504 z m 0.006,-5.09995 a 7.9349999,7.9350004 67.042481 0 1 -7.31221,-4.84001 7.9349999,7.9350004 67.042481 0 1 4.21163,-10.40195 7.9349999,7.9350004 67.042481 0 1 10.40143,4.21163 7.9349999,7.9350004 67.042481 0 1 -4.21163,10.40143 7.9349999,7.9350004 67.042481 0 1 -3.08922,0.6289 z m 9.8671,-12.0003 a 1.6349999,1.6349999 0 0 1 -1.63504,-1.63504 1.6349999,1.6349999 0 0 1 1.63504,-1.63504 1.6349999,1.6349999 0 0 1 1.63504,1.63504 1.6349999,1.6349999 0 0 1 -1.63504,1.63504 z m -19.74556,0 a 1.635,1.635 0 0 1 -1.63504,-1.63504 1.635,1.635 0 0 1 1.63504,-1.63504 1.635,1.635 0 0 1 1.63504,1.63504 1.635,1.635 0 0 1 -1.63504,1.63504 z"
       id="path1989"
       inkscape:connector-curvature="0" />
    <path
       inkscape:connector-curvature="0"
       id="path1991"
       d="m 170.12785,131.48419 a 14.799998,14.799999 67.04248 0 0 5.76244,-1.17202 14.799998,14.799999 67.04248 0 0 7.85482,-19.40088 14.799998,14.799999 67.04248 0 0 -19.40036,-7.85482 14.799998,14.799999 67.04248 0 0 -7.85482,19.40036 14.799998,14.799999 67.04248 0 0 13.63792,9.02736 z m -0.0103,-1.76475 a 1.6349999,1.6349999 0 0 1 -1.63504,-1.63504 1.6349999,1.6349999 0 0 1 1.63504,-1.63504 1.6349999,1.6349999 0 0 1 1.63504,1.63504 1.6349999,1.6349999 0 0 1 -1.63504,1.63504 z m 0.006,-5.09995 a 7.9349999,7.9350004 67.042481 0 1 -7.31221,-4.84001 7.9349999,7.9350004 67.042481 0 1 4.21163,-10.40195 7.9349999,7.9350004 67.042481 0 1 10.40143,4.21163 7.9349999,7.9350004 67.042481 0 1 -4.21163,10.40143 7.9349999,7.9350004 67.042481 0 1 -3.08922,0.6289 z m 9.8671,-12.0003 a 1.6349999,1.6349999 0 0 1 -1.63504,-1.63504 1.6349999,1.6349999 0 0 1 1.63504,-1.63504 1.6349999,1.6349999 0 0 1 1.63504,1.63504 1.6349999,1.6349999 0 0 1 -1.63504,1.63504 z m -19.74556,0 a 1.635,1.635 0 0 1 -1.63504,-1.63504 1.635,1.635 0 0 1 1.63504,-1.63504 1.635,1.635 0 0 1 1.63504,1.63504 1.635,1.635 0 0 1 -1.63504,1.63504 z"
       style="opacity:1;fill:#dadada;fill-opacity:1;stroke:none;stroke-width:0.26499999;stroke-miterlimit:4;stroke-dasharray:none;stroke-dashoffset:0;stroke-opacity:1" />
    <path
       style="opacity:1;fill:#dadada;fill-opacity:1;stroke:none;stroke-width:0.26499999;stroke-miterlimit:4;stroke-dasharray:none;stroke-dashoffset:0;stroke-opacity:1"
       d="m 145.05797,195.84269 a 14.799998,14.799999 67.04248 0 0 5.76244,-1.17202 14.799998,14.799999 67.04248 0 0 7.85482,-19.40088 14.799998,14.799999 67.04248 0 0 -19.40036,-7.85482 14.799998,14.799999 67.04248 0 0 -7.85482,19.40036 14.799998,14.799999 67.04248 0 0 13.63792,9.02736 z m -0.0103,-1.76475 a 1.6349999,1.6349999 0 0 1 -1.63504,-1.63504 1.6349999,1.6349999 0 0 1 1.63504,-1.63504 1.6349999,1.6349999 0 0 1 1.63504,1.63504 1.6349999,1.6349999 0 0 1 -1.63504,1.63504 z m 0.006,-5.09995 a 7.9349999,7.9350004 67.042481 0 1 -7.31221,-4.84001 7.9349999,7.9350004 67.042481 0 1 4.21163,-10.40195 7.9349999,7.9350004 67.042481 0 1 10.40143,4.21163 7.9349999,7.9350004 67.042481 0 1 -4.21163,10.40143 7.9349999,7.9350004 67.042481 0 1 -3.08922,0.6289 z m 9.8671,-12.0003 a 1.6349999,1.6349999 0 0 1 -1.63504,-1.63504 1.6349999,1.6349999 0 0 1 1.63504,-1.63504 1.6349999,1.6349999 0 0 1 1.63504,1.63504 1.6349999,1.6349999 0 0 1 -1.63504,1.63504 z m -19.74556,0 a 1.635,1.635 0 0 1 -1.63504,-1.63504 1.635,1.635 0 0 1 1.63504,-1.63504 1.635,1.635 0 0 1 1.63504,1.63504 1.635,1.635 0 0 1 -1.63504,1.63504 z"
       id="path1993"
       inkscape:connector-curvature="0" />
    <path
       inkscape:connector-curvature="0"
       id="path1995"
       d="m 156.65747,161.79255 a 14.799998,14.799999 67.04248 0 0 5.76244,-1.17202 14.799998,14.799999 67.04248 0 0 7.85482,-19.40088 14.799998,14.799999 67.04248 0 0 -19.40036,-7.85482 14.799998,14.799999 67.04248 0 0 -7.85482,19.40036 14.799998,14.799999 67.04248 0 0 13.63792,9.02736 z m -0.0103,-1.76475 a 1.6349999,1.6349999 0 0 1 -1.63504,-1.63504 1.6349999,1.6349999 0 0 1 1.63504,-1.63504 1.6349999,1.6349999 0 0 1 1.63504,1.63504 1.6349999,1.6349999 0 0 1 -1.63504,1.63504 z m 0.006,-5.09995 a 7.9349999,7.9350004 67.042481 0 1 -7.31221,-4.84001 7.9349999,7.9350004 67.042481 0 1 4.21163,-10.40195 7.9349999,7.9350004 67.042481 0 1 10.40143,4.21163 7.9349999,7.9350004 67.042481 0 1 -4.21163,10.40143 7.9349999,7.9350004 67.042481 0 1 -3.08922,0.6289 z m 9.8671,-12.0003 a 1.6349999,1.6349999 0 0 1 -1.63504,-1.63504 1.6349999,1.6349999 0 0 1 1.63504,-1.63504 1.6349999,1.6349999 0 0 1 1.63504,1.63504 1.6349999,1.6349999 0 0 1 -1.63504,1.63504 z m -19.74556,0 a 1.635,1.635 0 0 1 -1.63504,-1.63504 1.635,1.635 0 0 1 1.63504,-1.63504 1.635,1.635 0 0 1 1.63504,1.63504 1.635,1.635 0 0 1 -1.63504,1.63504 z"
       style="opacity:1;fill:#dadada;fill-opacity:1;stroke:none;stroke-width:0.26499999;stroke-miterlimit:4;stroke-dasharray:none;stroke-dashoffset:0;stroke-opacity:1" />
    <path
       style="opacity:1;fill:#dadada;fill-opacity:1;stroke:none;stroke-width:0.26499999;stroke-miterlimit:4;stroke-dasharray:none;stroke-dashoffset:0;stroke-opacity:1"
       d="m 114.00124,203.32624 a 14.799998,14.799999 67.04248 0 0 5.76244,-1.17202 14.799998,14.799999 67.04248 0 0 7.85482,-19.40088 14.799998,14.799999 67.04248 0 0 -19.40036,-7.85482 14.799998,14.799999 67.04248 0 0 -7.85481,19.40036 14.799998,14.799999 67.04248 0 0 13.63791,9.02736 z m -0.0103,-1.76475 a 1.6349999,1.6349999 0 0 1 -1.63504,-1.63504 1.6349999,1.6349999 0 0 1 1.63504,-1.63504 1.6349999,1.6349999 0 0 1 1.63504,1.63504 1.6349999,1.6349999 0 0 1 -1.63504,1.63504 z m 0.006,-5.09995 a 7.9349999,7.9350004 67.042481 0 1 -7.31221,-4.84001 7.9349999,7.9350004 67.042481 0 1 4.21163,-10.40195 7.9349999,7.9350004 67.042481 0 1 10.40143,4.21163 7.9349999,7.9350004 67.042481 0 1 -4.21163,10.40143 7.9349999,7.9350004 67.042481 0 1 -3.08922,0.6289 z m 9.8671,-12.0003 a 1.6349999,1.6349999 0 0 1 -1.63504,-1.63504 1.6349999,1.6349999 0 0 1 1.63504,-1.63504 1.6349999,1.6349999 0 0 1 1.63504,1.63504 1.6349999,1.6349999 0 0 1 -1.63504,1.63504 z m -19.74556,0 a 1.635,1.635 0 0 1 -1.63504,-1.63504 1.635,1.635 0 0 1 1.63504,-1.63504 1.635,1.635 0 0 1 1.63504,1.63504 1.635,1.635 0 0 1 -1.63504,1.63504 z"
       id="path1997"
       inkscape:connector-curvature="0" />
    <path
       style="opacity:1;fill:#d3d7cf;fill-opacity:1;stroke:none;stroke-width:0.26500005;stroke-miterlimit:4;stroke-dasharray:none;stroke-dashoffset:0;stroke-opacity:1"
       d="m 85.710606,193.8095 a 18.499998,18.499998 0 0 0 -18.500162,18.50017 v 23.49985 h 8.999967 v 1.99988 h -8.999967 v 27.00042 H 104.2102 V 237.8094 h -8.99994 v -1.99988 h 8.99994 V 212.30967 A 18.499998,18.499998 0 0 0 85.710606,193.8095 Z m 0,5.4653 a 1.6350001,1.6350001 0 0 1 1.635042,1.63505 1.6350001,1.6350001 0 0 1 -1.635042,1.63452 1.6350001,1.6350001 0 0 1 -1.635042,-1.63452 1.6350001,1.6350001 0 0 1 1.635042,-1.63505 z m -0.0057,5.09995 a 7.9349999,7.9350004 67.04248 0 1 7.312196,4.8395 7.9349999,7.9350004 67.04248 0 1 -4.21161,10.40195 7.9349999,7.9350004 67.04248 0 1 -10.401433,-4.21163 7.9349999,7.9350004 67.04248 0 1 4.211113,-10.40143 7.9349999,7.9350004 67.04248 0 1 3.089734,-0.62839 z m -9.867098,11.99978 a 1.6350001,1.6350001 0 0 1 1.635042,1.63505 1.6350001,1.6350001 0 0 1 -1.635042,1.63504 1.6350001,1.6350001 0 0 1 -1.635042,-1.63504 1.6350001,1.6350001 0 0 1 1.635042,-1.63505 z m 19.745539,0 a 1.635,1.635 0 0 1 1.634511,1.63505 1.635,1.635 0 0 1 -1.634511,1.63504 1.635,1.635 0 0 1 -1.635041,-1.63504 1.635,1.635 0 0 1 1.635041,-1.63505 z"
       id="rect1021"
       inkscape:connector-curvature="0" />
    <path
       style="opacity:1;fill:#d3d7cf;fill-opacity:1;stroke:none;stroke-width:0.26500005;stroke-miterlimit:4;stroke-dasharray:none;stroke-dashoffset:0;stroke-opacity:1"
       d="m 119.88986,251.00125 a 14.799999,14.799997 67.04248 0 0 1.17202,5.76245 14.799999,14.799997 67.04248 0 0 13.62811,9.02683 v 5.2e-4 h 0.01 23.49003 v -8.00003 h 1.99987 v 8.00003 h 27.00042 v -29.59974 h -27.0006 v 7.99951 h -1.99987 v -7.99951 h -23.49985 v 5.1e-4 a 14.799999,14.799997 67.04248 0 0 -5.77278,1.17151 14.799999,14.799997 67.04248 0 0 -9.02735,13.63792 z m 1.76527,-0.0103 a 1.6349999,1.6349999 0 0 1 1.63504,-1.63504 1.6349999,1.6349999 0 0 1 1.63452,1.63504 1.6349999,1.6349999 0 0 1 -1.63452,1.63505 1.6349999,1.6349999 0 0 1 -1.63504,-1.63505 z m 5.09994,0.006 a 7.9350004,7.9349999 67.042481 0 1 4.84002,-7.31221 7.9350004,7.9349999 67.042481 0 1 10.40142,4.21163 7.9350004,7.9349999 67.042481 0 1 -4.21162,10.40143 7.9350004,7.9349999 67.042481 0 1 -10.40143,-4.21111 7.9350004,7.9349999 67.042481 0 1 -0.62839,-3.08974 z m 11.99978,9.86711 a 1.6349999,1.6349999 0 0 1 1.63504,-1.63505 1.6349999,1.6349999 0 0 1 1.63504,1.63505 1.6349999,1.6349999 0 0 1 -1.63504,1.63504 1.6349999,1.6349999 0 0 1 -1.63504,-1.63504 z m 0,-19.74506 a 1.635,1.635 0 0 1 1.63504,-1.63504 1.635,1.635 0 0 1 1.63504,1.63504 1.635,1.635 0 0 1 -1.63504,1.63453 1.635,1.635 0 0 1 -1.63504,-1.63453 z"
       id="rect971"
       inkscape:connector-curvature="0" />
    <path
       style="opacity:1;fill:#d3d7cf;fill-opacity:1;stroke:none;stroke-width:0.26500005;stroke-miterlimit:4;stroke-dasharray:none;stroke-dashoffset:0;stroke-opacity:1"
       d="m 44.802142,187.21691 a 18.499998,18.499998 0 0 0 -18.500164,18.50016 v 23.49986 h 8.999968 v 2.00039 h -8.999968 v 34.4997 h 37.000327 v -34.4997 h -8.999968 v -2.00039 h 8.999968 V 205.71707 A 18.499998,18.499998 0 0 0 44.802142,187.21691 Z m 0,5.4653 a 1.635,1.635 0 0 1 1.635043,1.63504 1.635,1.635 0 0 1 -1.635043,1.63504 1.635,1.635 0 0 1 -1.635043,-1.63504 1.635,1.635 0 0 1 1.635043,-1.63504 z m -0.0057,5.09994 a 7.9349999,7.9350004 67.04248 0 1 7.312213,4.84002 7.9349999,7.9350004 67.04248 0 1 -4.211627,10.40143 7.9349999,7.9350004 67.04248 0 1 -10.401432,-4.21163 7.9349999,7.9350004 67.04248 0 1 4.211627,-10.40143 7.9349999,7.9350004 67.04248 0 1 3.089219,-0.62839 z m -9.867098,11.99979 a 1.635,1.635 0 0 1 1.63504,1.63504 1.635,1.635 0 0 1 -1.63504,1.63504 1.635,1.635 0 0 1 -1.635043,-1.63504 1.635,1.635 0 0 1 1.635043,-1.63504 z m 19.745563,0 a 1.635,1.635 0 0 1 1.635043,1.63504 1.635,1.635 0 0 1 -1.635043,1.63504 1.635,1.635 0 0 1 -1.63504,-1.63504 1.635,1.635 0 0 1 1.63504,-1.63504 z"
       id="rect2157"
       inkscape:connector-curvature="0" />
    <path
       style="opacity:1;fill:#d3d7cf;fill-opacity:1;stroke:none;stroke-width:0.26499999;stroke-miterlimit:4;stroke-dasharray:none;stroke-dashoffset:0;stroke-opacity:1"
       d="m 128.95717,197.06335 -6.85745,11.87731 v 19.76831 h 6.13037 v -7.49981 h 2.73988 v 7.49981 h 4.12998 v -26.64541 h 13.00024 v 26.64541 h 7.1298 v -7.49981 h 2.73988 v 7.49981 h 3.13004 v -19.78278 l -6.84919,-11.86284 z"
       id="rect1051"
       inkscape:connector-curvature="0"
       sodipodi:nodetypes="ccccccccccccccccccc" />
    <path
       sodipodi:nodetypes="ccccccccccccccccccc"
       inkscape:connector-curvature="0"
       id="path909"
       d="m 167.24321,233.70918 6.85746,-11.87731 v -19.76831 h -6.13038 v 7.49981 h -2.73988 v -7.49981 h -4.12998 v 26.64541 h -13.00024 v -26.64541 h -7.1298 v 7.49981 h -2.73988 v -7.49981 h -3.13004 v 19.78278 l 6.84919,11.86284 z"
       style="opacity:1;fill:#ef2929;fill-opacity:1;stroke:none;stroke-width:0.26499999;stroke-miterlimit:4;stroke-dasharray:none;stroke-dashoffset:0;stroke-opacity:1" />
  </g>
</svg>
